<svg xmlns="http://www.w3.org/2000/svg" xmlns:xlink="http://www.w3.org/1999/xlink">

<symbol id="envelope" fill-rule="evenodd" clip-rule="evenodd" stroke-linejoin="round" stroke-miterlimit="1.414"><path d="M256 352c-16.53 0-33.06-5.422-47.16-16.41L0 173.2V400C0 426.5 21.49 448 48 448h416c26.51 0 48-21.49 48-48V173.2l-208.8 162.5C289.1 346.6 272.5 352 256 352zM16.29 145.3l212.2 165.1c16.19 12.6 38.87 12.6 55.06 0l212.2-165.1C505.1 137.3 512 125 512 112C512 85.49 490.5 64 464 64h-416C21.49 64 0 85.49 0 112C0 125 6.01 137.3 16.29 145.3z"/></symbol>

<symbol id="location" fill-rule="evenodd" clip-rule="evenodd" stroke-linejoin="round" stroke-miterlimit="1.414"><path d="M192 0C85.97 0 0 85.97 0 192c0 77.41 26.97 99.03 172.3 309.7c9.531 13.77 29.91 13.77 39.44 0C357 291 384 269.4 384 192C384 85.97 298 0 192 0zM192 271.1c-44.13 0-80-35.88-80-80S147.9 111.1 192 111.1s80 35.88 80 80S236.1 271.1 192 271.1z"/></symbol>

</svg>